<svg width="18" height="24" viewBox="0 0 18 24" fill="none" xmlns="http://www.w3.org/2000/svg">
<path d="M18 24.001H16V18.958C15.9992 18.174 15.6874 17.4223 15.133 16.8679C14.5787 16.3136 13.827 16.0018 13.043 16.001H4.957C4.173 16.0018 3.42134 16.3136 2.86696 16.8679C2.31259 17.4223 2.00079 18.174 2 18.958V24.001H0V18.958C0.00158783 17.6438 0.524351 16.3839 1.45363 15.4546C2.3829 14.5253 3.64281 14.0026 4.957 14.001H13.043C14.3572 14.0026 15.6171 14.5253 16.5464 15.4546C17.4756 16.3839 17.9984 17.6438 18 18.958V24.001Z" fill="black"/>
<path d="M8.99994 12C7.81325 12 6.65322 11.6481 5.66652 10.9888C4.67983 10.3295 3.91079 9.39246 3.45666 8.2961C3.00254 7.19975 2.88372 5.99335 3.11523 4.82946C3.34674 3.66558 3.91819 2.59648 4.7573 1.75736C5.59642 0.918247 6.66551 0.346802 7.8294 0.115291C8.99329 -0.11622 10.1997 0.00259972 11.296 0.456726C12.3924 0.910851 13.3295 1.67989 13.9888 2.66658C14.648 3.65328 14.9999 4.81331 14.9999 6C14.9984 7.59081 14.3657 9.11602 13.2408 10.2409C12.116 11.3658 10.5908 11.9984 8.99994 12V12ZM8.99994 2C8.20882 2 7.43546 2.2346 6.77766 2.67412C6.11987 3.11365 5.60717 3.73836 5.30442 4.46927C5.00167 5.20017 4.92246 6.00444 5.0768 6.78036C5.23114 7.55629 5.6121 8.26902 6.17151 8.82843C6.73092 9.38784 7.44366 9.7688 8.21958 9.92314C8.99551 10.0775 9.79977 9.99827 10.5307 9.69552C11.2616 9.39277 11.8863 8.88008 12.3258 8.22228C12.7653 7.56449 12.9999 6.79113 12.9999 6C12.9999 4.93914 12.5785 3.92172 11.8284 3.17158C11.0782 2.42143 10.0608 2 8.99994 2Z" fill="black"/>
</svg>
