<svg width="24" height="24" viewBox="0 0 24 24" fill="none" xmlns="http://www.w3.org/2000/svg">
<g clip-path="url(#clip0_44_9464)">
<rect width="24" height="24" fill="black"/>
<path d="M19 2V0H17V2H15V0H13V2H11V0H9V2H7V0H5V2H3V21C3 21.7956 3.31607 22.5587 3.87868 23.1213C4.44129 23.6839 5.20435 24 6 24H18C18.7956 24 19.5587 23.6839 20.1213 23.1213C20.6839 22.5587 21 21.7956 21 21V2H19ZM19 21C19 21.2652 18.8946 21.5196 18.7071 21.7071C18.5196 21.8946 18.2652 22 18 22H6C5.73478 22 5.48043 21.8946 5.29289 21.7071C5.10536 21.5196 5 21.2652 5 21V4H19V21ZM17 9H7V7H17V9ZM17 13H7V11H17V13ZM13 17H7V15H13V17Z" fill="white"/>
</g>
<defs>
<clipPath id="clip0_44_9464">
<rect width="24" height="24" fill="white"/>
</clipPath>
</defs>
</svg>
