<svg width="24" height="24" viewBox="0 0 24 24" fill="none" xmlns="http://www.w3.org/2000/svg">
<g clip-path="url(#clip0_44_9443)">
<path d="M1.23693 13.7689L6.18693 18.7189L7.59993 17.3009L3.29993 13.0009L17.3829 13.0009V11.0009L3.29993 11.0009L7.59993 6.70087L6.18593 5.28687L1.23593 10.2369C1.00372 10.469 0.819508 10.7447 0.69383 11.048C0.568152 11.3514 0.503467 11.6765 0.503467 12.0049C0.503467 12.3332 0.568152 12.6584 0.69383 12.9617C0.819508 13.2651 1.00372 13.5407 1.23593 13.7729L1.23693 13.7689Z" fill="white"/>
<path d="M13.524 3C13.524 2.73478 13.6294 2.48043 13.8169 2.29289C14.0044 2.10536 14.2588 2 14.524 2H21C21.2652 2 21.5196 2.10536 21.7071 2.29289C21.8946 2.48043 22 2.73478 22 3L22 21C22 21.2652 21.8946 21.5196 21.7071 21.7071C21.5196 21.8946 21.2652 22 21 22H14.524C14.2588 22 14.0044 21.8946 13.8169 21.7071C13.6294 21.5196 13.524 21.2652 13.524 21L13.524 15.667H11.524L11.524 21C11.524 21.7956 11.8401 22.5587 12.4027 23.1213C12.9653 23.6839 13.7284 24 14.524 24H21C21.7956 24 22.5587 23.6839 23.1213 23.1213C23.6839 22.5587 24 21.7956 24 21L24 3C24 2.20435 23.6839 1.44129 23.1213 0.878679C22.5587 0.31607 21.7956 0 21 0H14.524C13.7284 0 12.9653 0.31607 12.4027 0.878679C11.8401 1.44129 11.524 2.20435 11.524 3V8.333H13.524V3Z" fill="white"/>
</g>
<defs>
<clipPath id="clip0_44_9443">
<rect width="24" height="24" fill="white" transform="matrix(-1 0 0 -1 24 24)"/>
</clipPath>
</defs>
</svg>
