<svg width="18" height="24" viewBox="0 0 18 24" fill="none" xmlns="http://www.w3.org/2000/svg">
<path d="M18 6.243C18.0014 5.71738 17.8985 5.19671 17.6973 4.71111C17.4962 4.22552 17.2007 3.78464 16.828 3.414L14.586 1.172C13.8347 0.423839 12.8183 0.00262745 11.758 0L3 0C2.20435 0 1.44129 0.31607 0.87868 0.87868C0.316071 1.44129 0 2.20435 0 3V24H18V6.243ZM15.414 4.828C15.4643 4.88257 15.5114 4.93999 15.555 5H13V2.445C13.06 2.48864 13.1174 2.53572 13.172 2.586L15.414 4.828ZM2 22V3C2 2.73478 2.10536 2.48043 2.29289 2.29289C2.48043 2.10536 2.73478 2 3 2H11V7H16V22H2ZM5 9H13V11H5V9ZM5 13H13V15H5V13ZM11.018 16.814L12.983 17.18C12.792 18.227 11.978 20 10.135 20C9.41163 19.9994 8.71045 19.7501 8.149 19.294C7.835 19.071 7.725 19 7.487 19C7.12901 19.1357 6.81308 19.3634 6.571 19.66L5.071 18.343C5.67588 17.6039 6.54001 17.1236 7.487 17C8.15183 17.0079 8.79411 17.2421 9.308 17.664C9.53213 17.8752 9.82708 17.995 10.135 18C10.758 18 11.015 16.827 11.018 16.814Z" fill="black"/>
</svg>
